<?xml version="1.0" encoding="utf-8"?>
<!-- Generator: Adobe Illustrator 16.0.5, SVG Export Plug-In . SVG Version: 6.00 Build 0)  -->
<!DOCTYPE svg PUBLIC "-//W3C//DTD SVG 1.1//EN" "http://www.w3.org/Graphics/SVG/1.1/DTD/svg11.dtd">
<svg version="1.1" id="Layer_1" xmlns="http://www.w3.org/2000/svg" xmlns:xlink="http://www.w3.org/1999/xlink" x="0px" y="0px"
	 width="416.375px" height="487.958px" viewBox="0 0 416.375 487.958" enable-background="new 0 0 416.375 487.958"
	 xml:space="preserve">
<g>
	<path fill="#FFE34F" d="M406.966,337.188c-11.804-2.075-19.625-9.36-24.7-16.911c4.554-10.105,8.442-20.647,11.56-31.616
		C428.029,168.24,358.124,42.885,237.71,8.684C147.943-16.814,55.45,15.535,0,83.525v286.324
		c10.317,12.691,22.033,24.324,35.015,34.615c-4.482,8.624-9.438,22.369-7.63,38.939c0,0,1.954,8.303,11.19,9.221
		c8.102,0.785,10.062-8.575,11.181-14.688c1.251-6.896,3.178-12.643,6.812-18.341c17.42,10.748,36.594,19.314,57.273,25.19
		c32.146,9.129,64.654,10.821,95.676,6.139c0.16,5.861-0.703,12.226-1.234,13.979c-1.782,5.985-9.172,17.652-0.693,21.821
		c7.2,3.525,13.799-1.02,17.52-7.25c4.738-7.951,8.078-18.17,8.857-27.426c0.027-0.315,0.151-3.3,0.215-6.282
		c56.357-15.083,105.812-51.651,136.371-103.028c10.312,13.295,22.403,18.035,22.403,18.035c16.786,5.473,21.309-5.347,21.309-5.347
		C421.736,341.292,406.966,337.188,406.966,337.188z"/>
</g>
<g>
	<path fill="none" stroke="#564032" stroke-width="2.364" stroke-miterlimit="10" d="M262.094,62.359L262.094,62.359
		c-26.293-2.544-17.526,28.59,2.13,29.827c13.059,0.818,25.631-7.49,25.919-19.806c0.266-11.882-15.714-22.16-26.339-25.628
		c-13.684-4.498-29.129-3.012-37.662,8.177c-7.568,9.913-4.689,23.374,1.289,33.654c7.6,13.063,22.217,18.906,37.294,20.105
		c12.509,0.979,30.446-2.338,35.69-13.924"/>
	<path fill="#32353F" d="M98.906,184.388c-1.781,6.276,1.164,12.607,6.584,14.144c5.42,1.542,11.269-2.29,13.051-8.568
		c1.783-6.275-1.178-12.604-6.597-14.144C106.525,174.28,100.689,178.106,98.906,184.388z"/>
	<path fill="#32353F" d="M348.282,246.564c-1.478,5.205,0.97,10.455,5.464,11.727c4.492,1.284,9.33-1.899,10.808-7.107
		c1.478-5.193-0.962-10.451-5.46-11.729C354.602,238.182,349.756,241.37,348.282,246.564z"/>
	
		<path fill="none" stroke="#32353F" stroke-width="2.364" stroke-linecap="round" stroke-linejoin="round" stroke-miterlimit="10" d="
		M117.247,273.986c0,0,80.792,70.314,198.014,47.301"/>
</g>
</svg>
