<?xml version="1.0" encoding="utf-8"?>
<!-- Generator: Adobe Illustrator 16.0.5, SVG Export Plug-In . SVG Version: 6.00 Build 0)  -->
<!DOCTYPE svg PUBLIC "-//W3C//DTD SVG 1.1//EN" "http://www.w3.org/Graphics/SVG/1.1/DTD/svg11.dtd">
<svg version="1.1" id="Layer_1" xmlns="http://www.w3.org/2000/svg" xmlns:xlink="http://www.w3.org/1999/xlink" x="0px" y="0px"
	 width="128px" height="31px" viewBox="0 0 128 31" enable-background="new 0 0 128 31" xml:space="preserve">
<g>
	<path fill="#32353F" d="M14.249,27.793c-2.201,0-4.12-0.387-5.704-1.149c-0.584-0.276-1.063-0.662-1.423-1.146
		c-0.369-0.496-0.556-1.066-0.556-1.701c0-0.633,0.239-1.213,0.708-1.717c0.478-0.511,1.044-0.77,1.688-0.77
		c0.514,0,0.971,0.082,1.358,0.25l1.675,0.623c0.785,0.308,1.552,0.463,2.286,0.463c0.636,0,1.188-0.173,1.686-0.53
		c0.466-0.337,0.695-0.785,0.695-1.375c0-0.595-0.217-1.022-0.661-1.309c-0.411-0.258-0.819-0.456-1.207-0.585
		c-0.413-0.137-1.121-0.354-2.123-0.654c-1.311-0.382-2.385-0.789-3.188-1.213c-0.831-0.437-1.504-1.063-2.006-1.865
		c-0.5-0.805-0.755-1.856-0.755-3.13c0-1.421,0.379-2.685,1.125-3.763c0.742-1.068,1.742-1.9,2.973-2.471
		c1.221-0.564,2.537-0.85,3.911-0.85c0.818,0,1.701,0.088,2.625,0.265c0.943,0.18,1.779,0.506,2.481,0.973
		c0.758,0.5,1.145,1.191,1.145,2.048c0,0.737-0.238,1.373-0.705,1.894c-0.477,0.527-1.089,0.796-1.822,0.796
		c-0.309,0-0.585-0.037-0.821-0.116l-0.903-0.32c-0.738-0.262-1.444-0.396-2.104-0.396c-0.548,0-1.057,0.141-1.51,0.416
		c-0.417,0.254-0.614,0.586-0.614,1.04c0,0.728,0.576,1.228,1.756,1.536l1.308,0.35c2.084,0.562,3.761,1.338,4.99,2.305
		c1.273,1.001,1.917,2.464,1.917,4.349c0,2.268-0.639,4.083-1.894,5.396c-0.748,0.814-1.7,1.42-2.83,1.797
		C16.643,27.604,15.462,27.793,14.249,27.793z"/>
	<path fill="#32353F" d="M28.015,27.476c-0.798,0-1.446-0.293-1.921-0.864c-0.465-0.559-0.7-1.246-0.7-2.045V13.197
		c0-0.803,0.233-1.487,0.691-2.033c0.471-0.56,1.121-0.843,1.929-0.843c0.814,0,1.467,0.283,1.948,0.841
		c0.467,0.545,0.704,1.229,0.704,2.034v11.369c0,0.815-0.234,1.508-0.696,2.056C29.497,27.188,28.839,27.476,28.015,27.476z
		 M28.078,9.385c-0.819,0-1.534-0.305-2.122-0.906c-0.583-0.601-0.879-1.315-0.879-2.129c0-0.819,0.295-1.536,0.881-2.134
		c0.586-0.6,1.3-0.904,2.12-0.904c0.539,0,1.044,0.14,1.504,0.419c0.457,0.272,0.823,0.646,1.092,1.107
		c0.269,0.467,0.404,0.973,0.404,1.512c0,0.814-0.296,1.528-0.88,2.129C29.61,9.081,28.897,9.385,28.078,9.385z"/>
	<path fill="#32353F" d="M55.879,27.476c-0.538,0-1.015-0.137-1.414-0.403c-0.397-0.266-0.702-0.629-0.907-1.078
		c-0.197-0.436-0.299-0.918-0.299-1.43v-7.617c0-0.649-0.196-1.152-0.6-1.542c-0.411-0.392-0.928-0.583-1.587-0.583
		c-0.611,0-1.103,0.2-1.504,0.613c-0.401,0.413-0.595,0.907-0.595,1.513v7.617c0,0.82-0.233,1.515-0.692,2.062
		c-0.47,0.562-1.118,0.848-1.929,0.848c-0.808,0-1.462-0.292-1.944-0.863c-0.468-0.559-0.707-1.246-0.707-2.049v-7.141
		c0-0.784-0.18-1.425-0.537-1.911c-0.343-0.464-0.861-0.691-1.586-0.691c-0.599,0-1.092,0.201-1.509,0.612
		c-0.414,0.411-0.616,0.908-0.616,1.515v7.615c0,0.816-0.234,1.51-0.697,2.06c-0.471,0.565-1.129,0.853-1.955,0.853
		c-0.797,0-1.444-0.292-1.921-0.865c-0.463-0.557-0.698-1.244-0.698-2.045V13.291c0-0.759,0.212-1.437,0.63-2.012
		c0.438-0.6,1.046-0.922,1.81-0.957h0.003c0.928,0,1.754,0.466,2.476,1.384c1.183-0.987,2.57-1.485,4.131-1.485
		c1.26,0,2.359,0.272,3.268,0.81c0.427,0.235,0.837,0.607,1.215,1.103c0.759-0.599,1.512-1.061,2.237-1.375
		c0.817-0.358,1.728-0.539,2.706-0.539c1.046,0,2.03,0.249,2.922,0.738c0.895,0.489,1.612,1.176,2.132,2.043
		c0.522,0.866,0.786,1.843,0.786,2.903v8.664c0,0.822-0.23,1.52-0.677,2.062C57.359,27.188,56.706,27.476,55.879,27.476z"/>
	<path fill="#32353F" d="M68.783,27.793c-2.202,0-4.123-0.387-5.705-1.149c-0.583-0.276-1.063-0.662-1.423-1.146
		C61.287,25,61.1,24.43,61.1,23.797s0.238-1.213,0.708-1.717c0.477-0.511,1.042-0.77,1.686-0.77c0.515,0,0.971,0.082,1.359,0.25
		l1.676,0.623c0.785,0.308,1.551,0.463,2.284,0.463c0.638,0,1.19-0.173,1.687-0.53c0.469-0.337,0.695-0.785,0.695-1.375
		c0-0.595-0.216-1.022-0.658-1.309c-0.413-0.258-0.82-0.456-1.209-0.585c-0.413-0.137-1.121-0.354-2.123-0.654
		c-1.311-0.382-2.385-0.789-3.187-1.213c-0.831-0.437-1.505-1.063-2.006-1.865c-0.501-0.805-0.757-1.856-0.757-3.13
		c0-1.421,0.381-2.685,1.126-3.763c0.743-1.068,1.743-1.9,2.973-2.471c1.22-0.564,2.536-0.85,3.911-0.85
		c0.818,0,1.703,0.088,2.625,0.265c0.943,0.18,1.78,0.506,2.482,0.973c0.758,0.5,1.145,1.191,1.145,2.048
		c0,0.735-0.236,1.373-0.705,1.894c-0.478,0.527-1.088,0.796-1.82,0.796c-0.311,0-0.589-0.037-0.822-0.116l-0.903-0.32
		c-0.737-0.262-1.444-0.396-2.102-0.396c-0.549,0-1.056,0.141-1.511,0.416c-0.414,0.252-0.611,0.591-0.611,1.04
		c0,0.728,0.572,1.228,1.752,1.536l1.311,0.35c2.082,0.562,3.76,1.338,4.988,2.305c1.272,1.001,1.916,2.464,1.916,4.349
		c0,2.268-0.635,4.083-1.891,5.396c-0.748,0.814-1.701,1.419-2.832,1.797C71.174,27.604,69.995,27.793,68.783,27.793z"/>
	<path fill="#32353F" d="M82.548,27.476c-0.8,0-1.446-0.293-1.923-0.864c-0.463-0.559-0.698-1.246-0.698-2.045V13.197
		c0-0.803,0.233-1.489,0.692-2.033c0.471-0.56,1.119-0.843,1.926-0.843c0.813,0,1.47,0.283,1.947,0.841
		c0.469,0.545,0.705,1.229,0.705,2.034v11.369c0,0.815-0.232,1.508-0.694,2.056C84.029,27.188,83.373,27.476,82.548,27.476z
		 M82.609,9.385c-0.821,0-1.534-0.305-2.121-0.906c-0.583-0.601-0.879-1.315-0.879-2.129c0-0.819,0.296-1.538,0.881-2.134
		c0.585-0.6,1.299-0.904,2.119-0.904c0.538,0,1.045,0.14,1.506,0.419c0.456,0.273,0.824,0.646,1.09,1.107
		c0.27,0.464,0.407,0.973,0.407,1.512c0,0.814-0.298,1.528-0.882,2.129C84.143,9.081,83.43,9.385,82.609,9.385z"/>
	<path fill="#32353F" d="M110.414,27.476c-0.541,0-1.017-0.137-1.418-0.403c-0.397-0.268-0.702-0.631-0.904-1.078
		c-0.198-0.436-0.298-0.918-0.298-1.43v-7.617c0-0.649-0.196-1.152-0.603-1.542c-0.41-0.392-0.926-0.583-1.584-0.583
		c-0.611,0-1.104,0.2-1.504,0.613c-0.402,0.413-0.598,0.907-0.598,1.513v7.617c0,0.82-0.232,1.514-0.691,2.062
		c-0.473,0.562-1.119,0.848-1.928,0.848c-0.807,0-1.463-0.292-1.943-0.863c-0.471-0.559-0.709-1.248-0.709-2.049v-7.141
		c0-0.783-0.181-1.425-0.537-1.911c-0.34-0.464-0.861-0.691-1.587-0.691c-0.597,0-1.091,0.201-1.508,0.612
		c-0.413,0.411-0.614,0.908-0.614,1.515v7.615c0,0.819-0.234,1.51-0.696,2.06c-0.475,0.565-1.13,0.853-1.955,0.853
		c-0.8,0-1.445-0.292-1.923-0.865c-0.463-0.557-0.697-1.244-0.697-2.045V13.291c0-0.759,0.211-1.437,0.631-2.012
		c0.438-0.599,1.045-0.922,1.811-0.957c0,0,0,0,0.002,0c0.926,0,1.756,0.466,2.478,1.384c1.179-0.987,2.569-1.485,4.129-1.485
		c1.261,0,2.36,0.272,3.27,0.81c0.427,0.235,0.835,0.607,1.213,1.103c0.76-0.599,1.512-1.061,2.237-1.375
		c0.817-0.358,1.727-0.539,2.708-0.539c1.044,0,2.028,0.249,2.921,0.738c0.896,0.489,1.613,1.176,2.133,2.043
		c0.521,0.865,0.785,1.843,0.785,2.903v8.664c0,0.822-0.229,1.52-0.68,2.062C111.891,27.188,111.238,27.476,110.414,27.476z"/>
	<path fill="#32353F" d="M119.116,27.476c-0.8,0-1.444-0.293-1.925-0.864c-0.461-0.559-0.696-1.246-0.696-2.045V13.197
		c0-0.803,0.233-1.487,0.69-2.033c0.473-0.56,1.121-0.843,1.93-0.843c0.812,0,1.466,0.283,1.945,0.841
		c0.467,0.545,0.706,1.231,0.706,2.034v11.369c0,0.815-0.234,1.508-0.696,2.056C120.598,27.188,119.939,27.476,119.116,27.476z
		 M119.18,9.385c-0.823,0-1.535-0.305-2.123-0.906c-0.584-0.6-0.881-1.315-0.881-2.129c0-0.819,0.297-1.538,0.881-2.135
		c0.588-0.599,1.301-0.903,2.123-0.903c0.536,0,1.044,0.14,1.504,0.416c0.453,0.275,0.82,0.649,1.09,1.109
		c0.268,0.465,0.404,0.975,0.404,1.513c0,0.812-0.296,1.528-0.88,2.127C120.711,9.081,119.998,9.385,119.18,9.385z"/>
</g>
</svg>
